<svg width="118" height="33" viewBox="0 0 118 33" fill="none" xmlns="http://www.w3.org/2000/svg">
<g clip-path="url(#clip0_160_23737)">
<path fill-rule="evenodd" clip-rule="evenodd" d="M68 29V0H64V30C64 31.6569 65.3431 33 67 33H76.5V29H68Z" fill="#E63946"/>
<path fill-rule="evenodd" clip-rule="evenodd" d="M79.5 4C79.5 1.79086 81.2909 0 83.5 0H93C95.2091 0 97 1.79086 97 4V29C97 31.2091 95.2091 33 93 33H83.5C81.2909 33 79.5 31.2091 79.5 29V4ZM93 4H83.5V29H93V4Z" fill="#219EBC"/>
<path fill-rule="evenodd" clip-rule="evenodd" d="M102 4C102 1.79086 103.791 0 106 0H114C116.209 0 118 1.79086 118 4V6H114V4H106V29H114V23H110V19H114C116.209 19 118 20.7909 118 23V29C118 31.2091 116.209 33 114 33H106C103.791 33 102 31.2091 102 29V4Z" fill="#219EBC"/>
<path fill-rule="evenodd" clip-rule="evenodd" d="M46.0714 19.0909C44.9537 19.0909 44.0476 20.0067 44.0476 21.1364V26.8636C44.0476 27.9933 44.9537 28.9091 46.0714 28.9091H50.9286C52.0463 28.9091 52.9524 27.9933 52.9524 26.8636V21.1364C52.9524 20.0067 52.0463 19.0909 50.9286 19.0909H46.0714ZM40 21.1364C40 17.7473 42.7183 15 46.0714 15H50.9286C54.2817 15 57 17.7473 57 21.1364V26.8636C57 30.2527 54.2817 33 50.9286 33H46.0714C42.7183 33 40 30.2527 40 26.8636V21.1364Z" fill="#219EBC"/>
<path fill-rule="evenodd" clip-rule="evenodd" d="M26.3358 20.3163H37.0089V16.3628H24.7493C23.2358 16.3628 22.0089 17.4838 22.0089 18.8667V33.3628H26.3358V20.3163Z" fill="#219EBC"/>
<path fill-rule="evenodd" clip-rule="evenodd" d="M15.2679 4.01786H6.93408V0H16.7411C18.1465 0 19.2858 1.13928 19.2858 2.54464V20.9318C19.2858 22.3372 18.1465 23.4765 16.7411 23.4765H6.93408V19.4586H15.2679V4.01786Z" fill="#E63946"/>
<path fill-rule="evenodd" clip-rule="evenodd" d="M0 33V0H4V33H0Z" fill="#219EBC"/>
</g>
<defs>
<clipPath id="clip0_160_23737">
<rect width="118" height="33" fill="white"/>
</clipPath>
</defs>
</svg>
