<svg width="48" height="48" viewBox="0 0 48 48" fill="none" xmlns="http://www.w3.org/2000/svg">
<rect width="48" height="48" rx="24" fill="#8CC84B"/>
<path d="M22.488 6.48038C23.388 5.97076 24.5355 5.96851 25.413 6.48038L38.85 14.055C39.6904 14.5275 40.2529 15.4646 40.245 16.4333V31.6208C40.2506 32.6299 39.633 33.5873 38.7465 34.0508L25.3815 41.5905C24.9244 41.8431 24.4079 41.9687 23.8859 41.9543C23.3638 41.9399 22.8551 41.7859 22.4126 41.5084L18.402 39.1909C18.1286 39.0278 17.8215 38.8984 17.628 38.634C17.799 38.4045 18.1028 38.3753 18.3503 38.274C18.9083 38.0963 19.419 37.824 19.932 37.536C20.0614 37.446 20.22 37.4798 20.3438 37.5608L23.7638 39.5385C24.0079 39.6791 24.2554 39.4935 24.4646 39.3754L37.5878 31.9695C37.7498 31.8908 37.8398 31.7198 37.8263 31.542V16.5008C37.8443 16.2983 37.7284 16.1138 37.545 16.0316L24.2138 8.52451C24.1369 8.47137 24.0458 8.44281 23.9524 8.44261C23.859 8.44241 23.7677 8.47058 23.6906 8.52338L10.3785 16.0463C10.1985 16.1284 10.0747 16.3106 10.0972 16.5131V31.5544C10.0815 31.7321 10.176 31.8998 10.3391 31.9763L13.8964 33.9844C14.5646 34.3444 15.3848 34.5469 16.1205 34.2825C16.4425 34.1612 16.7196 33.9443 16.9149 33.661C17.1101 33.3777 17.2141 33.0415 17.2129 32.6974L17.2163 17.7461C17.2005 17.5245 17.4098 17.3411 17.6246 17.3636H19.3346C19.5596 17.358 19.7363 17.5965 19.7059 17.8193L19.7025 32.865C19.7036 34.2015 19.1546 35.655 17.9183 36.3109C16.395 37.0984 14.5118 36.933 13.0065 36.1759L9.1815 34.0609C8.2815 33.6109 7.67737 32.6389 7.683 31.6309V16.4434C7.68674 15.9498 7.82244 15.4661 8.07604 15.0426C8.32963 14.6191 8.69189 14.2711 9.12525 14.0348L22.488 6.48038ZM26.3625 17.0081C28.3054 16.8956 30.3855 16.9339 32.1338 17.8913C33.4871 18.6248 34.2375 20.1638 34.2623 21.669C34.224 21.8715 34.0125 21.984 33.819 21.9694C33.2565 21.9683 32.6918 21.9773 32.127 21.966C31.8874 21.975 31.749 21.7545 31.7186 21.543C31.5566 20.823 31.164 20.1109 30.4868 19.7633C29.4473 19.2424 28.2412 19.2683 27.1073 19.2795C26.2792 19.3245 25.3894 19.3954 24.6885 19.8814C24.1485 20.2504 23.9865 21.0064 24.1789 21.5936C24.3589 22.0245 24.8573 22.1629 25.2634 22.2911C27.6056 22.9031 30.0863 22.8536 32.3846 23.649C33.3353 23.9775 34.2656 24.6165 34.5919 25.6121C35.0171 26.9464 34.8315 28.5416 33.8831 29.6126C33.1136 30.4946 31.9931 30.9626 30.8738 31.2349C29.3854 31.5668 27.8419 31.5746 26.331 31.4261C24.9101 31.2641 23.4319 30.8906 22.335 29.9231C21.3968 29.1086 20.94 27.8396 20.985 26.6156C20.9963 26.4086 21.2021 26.2646 21.4013 26.2815H23.0888C23.316 26.2658 23.4825 26.4615 23.4938 26.6753C23.5984 27.3503 23.856 28.0815 24.4545 28.4753C25.6088 29.22 27.0566 29.1683 28.3774 29.1896C29.472 29.1413 30.7005 29.1266 31.5949 28.4021C32.0674 27.9893 32.2058 27.2996 32.0786 26.7056C31.9403 26.2039 31.4036 25.971 30.9536 25.8056C28.6418 25.0744 26.133 25.3399 23.8436 24.5119C22.9144 24.1834 22.0155 23.5624 21.6589 22.6073C21.1605 21.2573 21.3889 19.5844 22.4385 18.5494C23.451 17.52 24.936 17.1229 26.3423 16.9811L26.3625 17.0081Z" fill="white"/>
</svg>
