<svg width="48" height="48" viewBox="0 0 48 48" fill="none" xmlns="http://www.w3.org/2000/svg">
<rect width="48" height="48" rx="24" fill="#F1CE4A"/>
<path d="M19.6027 23.5118C19.8715 23.4632 20.1441 23.4387 20.4173 23.4386L20.1978 23.4375H27.4978C27.8145 23.4375 28.117 23.3941 28.4054 23.3142C29.7674 22.9371 30.75 21.7295 30.75 20.2441V14.1112C30.75 12.3652 29.2629 11.0537 27.4953 10.7639C26.3752 10.5794 24.735 10.4948 23.6219 10.5003C22.5089 10.5063 21.4435 10.599 20.5086 10.7639C17.7522 11.2436 17.25 12.2528 17.25 14.1112V16.125H24V17.25H15.0577C12.5526 17.25 10.5198 20.2433 10.5005 23.9467C10.5004 23.9645 10.5 23.9822 10.5 24C10.5 24.6696 10.5661 25.3163 10.6888 25.9269C11.2487 28.7159 12.9926 30.75 15.0577 30.75H16.125V27.5202C16.125 25.6339 17.5415 23.8827 19.6027 23.5118ZM20.3196 14.9298C19.6451 14.9298 19.0972 14.3824 19.0972 13.7062C19.0972 13.0267 19.6439 12.4743 20.3196 12.4743C20.9927 12.4743 21.5429 13.0266 21.5429 13.7062C21.543 14.3824 20.9939 14.9298 20.3196 14.9298Z" fill="white"/>
<path d="M37.2153 21.6476C36.5705 19.0796 34.9008 17.25 32.9423 17.25H31.875V20.1097C31.875 22.4944 30.308 24.2212 28.3953 24.517C28.2022 24.5472 28.0071 24.5623 27.8116 24.5624H20.5091C20.1994 24.5622 19.8911 24.6017 19.5915 24.68C18.247 25.0328 17.25 26.1516 17.25 27.6025V33.7357C17.25 35.4817 19.0062 36.5078 20.7291 37.0088C22.7912 37.6086 25.037 37.7167 27.5049 37.0088C29.1434 36.5405 30.75 35.594 30.75 33.7357V31.875H24V30.75H32.9423C34.717 30.75 36.2546 29.2478 37.0074 27.0551C37.3224 26.1378 37.5 25.0998 37.5 24C37.5 23.1726 37.3992 22.3801 37.2153 21.6476ZM27.6469 32.917C28.3212 32.917 28.869 33.4644 28.869 34.1405C28.869 34.819 28.3212 35.3724 27.6469 35.3724C26.9735 35.3724 26.4235 34.819 26.4235 34.1405C26.4235 33.4634 26.9724 32.917 27.6469 32.917Z" fill="white"/>
</svg>
