<svg width="48" height="48" viewBox="0 0 48 48" fill="none" xmlns="http://www.w3.org/2000/svg">
<rect width="48" height="48" rx="24" fill="#61DAFB"/>
<g clip-path="url(#clip0_157_25940)">
<path d="M35.5994 18.3666C35.2162 18.2351 34.8299 18.1134 34.4404 18.0014C34.505 17.739 34.5647 17.4756 34.6195 17.2109C35.4967 12.9526 34.9232 9.52202 32.9645 8.39273C31.0865 7.3096 28.0151 8.43894 24.9131 11.1383C24.6074 11.405 24.3086 11.6791 24.0167 11.9609C23.8213 11.7736 23.6225 11.59 23.4202 11.41C20.1692 8.52341 16.9106 7.30714 14.954 8.43977C13.0778 9.52587 12.522 12.751 13.3118 16.7867C13.3904 17.1863 13.4791 17.5838 13.5779 17.9791C13.1168 18.11 12.6715 18.2496 12.2455 18.3981C8.43413 19.7269 6 21.8095 6 23.9696C6 26.2008 8.6129 28.4386 12.5829 29.7954C12.9048 29.9049 13.2293 30.0063 13.5564 30.0997C13.4502 30.5254 13.3559 30.9538 13.2736 31.3849C12.5206 35.3505 13.1087 38.4992 14.9799 39.5786C16.9127 40.693 20.1565 39.5475 23.3152 36.7865C23.5649 36.5682 23.8153 36.3374 24.0664 36.094C24.3825 36.399 24.7069 36.695 25.0396 36.9819C28.0992 39.6147 31.1209 40.6779 32.9906 39.5956C34.9216 38.4778 35.549 35.0952 34.7342 30.9797C34.6721 30.6654 34.6001 30.3446 34.5184 30.0174C34.7462 29.9502 34.9694 29.8805 35.1878 29.8084C39.3149 28.4412 42 26.2306 42 23.9696C42 21.8017 39.4875 19.705 35.5994 18.3666ZM25.9227 12.2986C28.5805 9.98548 31.0645 9.07229 32.1964 9.72503C33.4018 10.4203 33.8707 13.2239 33.1133 16.9006C33.0636 17.1401 33.0097 17.3787 32.9514 17.6163C31.3655 17.2569 29.7574 17.0028 28.1379 16.8559C27.2101 15.5229 26.1934 14.2541 25.0949 13.0579C25.3645 12.798 25.6404 12.5449 25.9227 12.2986ZM16.6296 25.8149C16.9551 26.4438 17.2953 27.0647 17.6502 27.6777C18.0122 28.3029 18.3889 28.9191 18.7804 29.5265C17.6661 29.4056 16.5588 29.2276 15.4627 28.9931C15.7805 27.9667 16.1721 26.8999 16.6296 25.8149ZM16.6278 22.198C16.18 21.1357 15.7968 20.0914 15.4839 19.0829C16.511 18.853 17.6063 18.6651 18.7476 18.5225C18.3656 19.1184 17.9977 19.7229 17.644 20.3363C17.2908 20.9488 16.9521 21.5694 16.6278 22.198ZM17.4453 24.0066C17.9192 23.0203 18.4296 22.0529 18.9766 21.1044V21.1047C19.523 20.1566 20.1049 19.2303 20.7221 18.3258C21.7927 18.2448 22.8905 18.2024 24.0002 18.2024C25.1148 18.2024 26.214 18.2451 27.2843 18.3267C27.8949 19.2292 28.4731 20.1524 29.0188 21.0962C29.5673 22.042 30.0847 23.0048 30.5708 23.9848C30.0899 24.9742 29.5743 25.9455 29.0239 26.8988H29.0238C28.4784 27.8461 27.9027 28.775 27.2967 29.6853C26.2286 29.7617 25.1248 29.801 24 29.801C22.8798 29.801 21.79 29.7661 20.7406 29.6981C20.1191 28.7903 19.5327 27.86 18.9812 26.9072C18.4327 25.9601 17.9207 24.9933 17.4453 24.0066H17.4453ZM30.3561 27.667C30.7181 27.0391 31.0661 26.4032 31.4 25.7596C31.8576 26.7936 32.2611 27.8506 32.609 28.9265C31.5003 29.1756 30.3794 29.3667 29.2508 29.4989C29.6313 28.8957 29.9997 28.2851 30.356 27.667H30.3561ZM31.3854 22.1991C31.0528 21.5678 30.7076 20.9433 30.3499 20.3258C29.9979 19.7178 29.633 19.1177 29.2551 18.5254C30.4039 18.6704 31.5044 18.8632 32.5377 19.0991C32.2059 20.1511 31.8214 21.1858 31.3854 22.1991H31.3854ZM24.0172 14.1577C24.766 14.974 25.4731 15.8276 26.1357 16.7152C24.7182 16.6482 23.3 16.6479 21.8809 16.7142C22.5803 15.7919 23.2967 14.935 24.0172 14.1577ZM15.7244 9.77075C16.9289 9.07355 19.592 10.0677 22.399 12.56C22.5784 12.7193 22.7586 12.8861 22.9391 13.0586C21.8341 14.2546 20.8097 15.5224 19.8724 16.8538C18.2567 16.9987 16.652 17.2481 15.0685 17.6004C14.9767 17.2328 14.8942 16.8631 14.8211 16.4912V16.4913C14.1444 13.0335 14.5937 10.4253 15.7244 9.77075ZM13.969 28.6184C13.6706 28.5329 13.3744 28.4402 13.0803 28.3402C11.5558 27.8605 10.1325 27.1044 8.88157 26.1097C8.52318 25.8638 8.21902 25.547 7.9879 25.1789C7.75678 24.8108 7.6036 24.3992 7.53784 23.9696C7.53784 22.6589 9.49225 20.9868 12.7518 19.8503C13.161 19.7083 13.574 19.5783 13.9909 19.4605C14.4749 21.013 15.061 22.5319 15.7455 24.0071C15.0525 25.5034 14.459 27.0438 13.969 28.6184ZM22.3032 35.6284C21.1261 36.7095 19.76 37.5647 18.2733 38.1513H18.2731C17.8811 38.3389 17.4548 38.4442 17.0206 38.4605C16.5863 38.4768 16.1533 38.4039 15.7483 38.2463C14.6127 37.5915 14.1408 35.063 14.7846 31.6718C14.8612 31.2711 14.9488 30.8726 15.0476 30.4766C16.6469 30.8201 18.2678 31.0548 19.8989 31.1789C20.8443 32.5178 21.8766 33.7933 22.9892 34.9969C22.7657 35.213 22.537 35.4235 22.3032 35.6284ZM24.0597 33.8902C23.3308 33.1037 22.6039 32.2337 21.8937 31.298C22.583 31.3252 23.2851 31.3388 24 31.3388C24.7338 31.3388 25.4582 31.3227 26.1732 31.2906C25.5136 32.1926 24.8082 33.0603 24.0597 33.8902V33.8902ZM33.3986 36.0299C33.3654 36.4632 33.2437 36.8851 33.041 37.2694C32.8382 37.6538 32.5588 37.9926 32.22 38.2647C31.0855 38.9214 28.6592 38.0678 26.0427 35.8162C25.7428 35.5581 25.441 35.283 25.1375 34.9909C26.2285 33.7831 27.2366 32.503 28.1551 31.1593C29.7956 31.0209 31.4247 30.7698 33.0308 30.4077C33.1041 30.7041 33.1691 30.9944 33.2257 31.2786C33.5744 32.8383 33.633 34.4489 33.3986 36.0299V36.0299ZM34.7043 28.3487H34.7041C34.5074 28.4139 34.3053 28.4768 34.0995 28.5379C33.5961 26.978 32.987 25.4543 32.2765 23.9772C32.9601 22.5199 33.5455 21.0185 34.0286 19.4831C34.3968 19.5898 34.7543 19.7022 35.0988 19.8208C38.4302 20.9675 40.4622 22.6631 40.4622 23.9696C40.4622 25.3613 38.2676 27.168 34.7043 28.3488V28.3487Z" fill="white"/>
<path d="M24 20.7549C24.6358 20.7549 25.2574 20.9435 25.786 21.2967C26.3147 21.6499 26.7268 22.152 26.9701 22.7394C27.2134 23.3268 27.2771 23.9732 27.1531 24.5968C27.029 25.2204 26.7228 25.7933 26.2732 26.2428C25.8236 26.6924 25.2508 26.9986 24.6272 27.1227C24.0036 27.2467 23.3572 27.183 22.7698 26.9397C22.1824 26.6964 21.6803 26.2843 21.3271 25.7556C20.9739 25.227 20.7853 24.6054 20.7853 23.9696C20.7853 23.117 21.124 22.2994 21.7269 21.6965C22.3298 21.0936 23.1474 20.7549 24 20.7549Z" fill="white"/>
</g>
<defs>
<clipPath id="clip0_157_25940">
<rect width="36" height="32.0298" fill="white" transform="translate(6 7.98511)"/>
</clipPath>
</defs>
</svg>
