<svg width="24" height="25" viewBox="0 0 24 25" fill="none" xmlns="http://www.w3.org/2000/svg">
<path d="M17 21.5V19.5C17 18.4391 16.5786 17.4217 15.8284 16.6716C15.0783 15.9214 14.0609 15.5 13 15.5H5C3.93913 15.5 2.92172 15.9214 2.17157 16.6716C1.42143 17.4217 1 18.4391 1 19.5V21.5M23 21.5V19.5C22.9993 18.6137 22.7044 17.7528 22.1614 17.0523C21.6184 16.3519 20.8581 15.8516 20 15.63M16 3.63C16.8604 3.8503 17.623 4.3507 18.1676 5.05231C18.7122 5.75392 19.0078 6.61683 19.0078 7.505C19.0078 8.39317 18.7122 9.25608 18.1676 9.95769C17.623 10.6593 16.8604 11.1597 16 11.38M13 7.5C13 9.70914 11.2091 11.5 9 11.5C6.79086 11.5 5 9.70914 5 7.5C5 5.29086 6.79086 3.5 9 3.5C11.2091 3.5 13 5.29086 13 7.5Z" stroke="#D0D5DD" stroke-width="2" stroke-linecap="round" stroke-linejoin="round"/>
</svg>
